# xmcd CD database file
#
# Track frame offsets:
#	150
#	16880
#	36219
#	51757
#	66826
#	84946
#
# Disc length: 1445 seconds
#
# Revision: 0
# Processed by: cddbd v1.5.2PL0 Copyright (c) Steve Scherf et al.
# Submitted via: CDex 1.51
#
DISCID=4105a306
DTITLE=No Reason - No Reason
DYEAR=2002
DGENRE=Blues
TTITLE0=Hold On
TTITLE1=Mist of the time
TTITLE2=Do you think it's better ?
TTITLE3=No reason
TTITLE4=I know
TTITLE5=My dark side through your own
EXTD=YEAR: 2002
EXTT0=
EXTT1=
EXTT2=
EXTT3=
EXTT4=
EXTT5=
PLAYORDER=
